<svg xmlns="http://www.w3.org/2000/svg" viewBox="0 0 24 24" id="Email--Streamline-Ios-14.svg" height="24" width="24"><desc>Email Streamline Icon: https://streamlinehq.com</desc><g><path d="M16.748 9.024 12.64 11.488a1.252 1.252 0 0 1 -1.2800000000000002 0l-4.108 -2.4640000000000004a0.772 0.772 0 0 0 -0.8 1.324L10.564 12.8a2.8000000000000003 2.8000000000000003 0 0 0 2.872 0l4.104 -2.4640000000000004a0.772 0.772 0 0 0 -0.8 -1.324Z" fill="#31ade6" stroke-width="1"></path><path d="M18.8 0H5.2A5.2 5.2 0 0 0 0 5.2v13.600000000000001a5.2 5.2 0 0 0 5.2 5.2h13.600000000000001a5.2 5.2 0 0 0 5.2 -5.2V5.2A5.2 5.2 0 0 0 18.8 0Zm0.4 16.372a1.544 1.544 0 0 1 -1.544 1.544H6.344A1.544 1.544 0 0 1 4.800000000000001 16.372V7.628a1.544 1.544 0 0 1 1.544 -1.544h11.312000000000001A1.544 1.544 0 0 1 19.200000000000003 7.628Z" fill="#31ade6" stroke-width="1"></path></g></svg>