<svg xmlns="http://www.w3.org/2000/svg" viewBox="0 0 24 24" id="Whatsapp--Streamline-Ios-14.svg" height="24" width="24"><desc>Whatsapp Streamline Icon: https://streamlinehq.com</desc><g><path d="M16 13.380000000000003s-1.276 -0.6320000000000001 -1.504 -0.7080000000000001a0.6000000000000001 0.6000000000000001 0 0 0 -0.8 0.20800000000000002c-0.10800000000000001 0.168 -0.43200000000000005 0.548 -0.6000000000000001 0.768a5.396000000000001 5.396000000000001 0 0 1 -1.64 -0.984 7.56 7.56 0 0 1 -1.08 -1.284 3.0280000000000005 3.0280000000000005 0 0 0 0.6000000000000001 -0.82 0.66 0.66 0 0 0 0 -0.6000000000000001l-0.376 -0.9039999999999999 -0.236 -0.5519999999999999a0.9039999999999999 0.9039999999999999 0 0 0 -0.7200000000000001 -0.528 1.312 1.312 0 0 0 -1.152 0.336c-1.096 1.1720000000000002 -1.048 2.596 0.10400000000000001 4.112a8.284 8.284 0 0 0 3.564 3.096 6.4 6.4 0 0 0 2.076 0.6000000000000001 2.34 2.34 0 0 0 2.1 -1.252 1.2000000000000002 1.2000000000000002 0 0 0 0.07600000000000001 -1.2000000000000002 0.8 0.8 0 0 0 -0.41200000000000003 -0.288Z" fill="#2499ce" stroke-width="1"></path><path d="M18.8 0H5.2A5.2 5.2 0 0 0 0 5.2v13.600000000000001a5.2 5.2 0 0 0 5.2 5.2h13.600000000000001a5.2 5.2 0 0 0 5.2 -5.2V5.2A5.2 5.2 0 0 0 18.8 0Zm-0.7400000000000001 15.876a7.164000000000001 7.164000000000001 0 0 1 -9.9 2.148l-2.516 0.8a0.296 0.296 0 0 1 -0.376 -0.376l0.8 -2.4000000000000004A7.06 7.06 0 0 1 4.800000000000001 12a7.2 7.2 0 1 1 13.26 3.8960000000000004Z" fill="#2499ce" stroke-width="1"></path></g></svg>